<svg width="20" height="21" viewBox="0 0 20 21" fill="none" xmlns="http://www.w3.org/2000/svg">
<path fill-rule="evenodd" clip-rule="evenodd" d="M10.5 20C15.7467 20 20 15.7467 20 10.5C20 5.25329 15.7467 1 10.5 1C5.25329 1 1 5.25329 1 10.5C1 15.7467 5.25329 20 10.5 20Z" stroke="#979797"/>
<path fill-rule="evenodd" clip-rule="evenodd" d="M11.6284 11.0001L14.8697 7.75877C15.0434 7.58499 15.0434 7.30411 14.8697 7.13033C14.6959 6.95656 14.415 6.95656 14.2412 7.13033L11 10.3716L7.75876 7.13033C7.58498 6.95656 7.3041 6.95656 7.13033 7.13033C6.95656 7.30411 6.95656 7.58499 7.13033 7.75877L10.3716 11.0001L7.13033 14.2413C6.95656 14.4151 6.95656 14.696 7.13033 14.8698C7.21699 14.9564 7.33077 15 7.44454 15C7.55832 15 7.67209 14.9564 7.75876 14.8698L11 11.6285L14.2412 14.8698C14.3279 14.9564 14.4417 15 14.5555 15C14.6692 15 14.783 14.9564 14.8697 14.8698C15.0434 14.696 15.0434 14.4151 14.8697 14.2413L11.6284 11.0001Z" fill="#888888"/>
</svg>
